<!DOCTYPE svg PUBLIC "-//W3C//DTD SVG 1.1//EN" "http://www.w3.org/Graphics/SVG/1.1/DTD/svg11.dtd">
<!-- Uploaded to: SVG Repo, www.svgrepo.com, Transformed by: SVG Repo Mixer Tools -->
<svg fill="#c2c2c2" version="1.1" id="Capa_1" xmlns="http://www.w3.org/2000/svg" xmlns:xlink="http://www.w3.org/1999/xlink" width="800px" height="800px" viewBox="0 0 31.514 31.514" xml:space="preserve">
<g id="SVGRepo_bgCarrier" stroke-width="0"/>
<g id="SVGRepo_tracerCarrier" stroke-linecap="round" stroke-linejoin="round"/>
<g id="SVGRepo_iconCarrier"> <g> <g> <path d="M10.275,1.161v1.243L3.424,0v31.514l9.044-2.424v-1.004h0.361v-6.689h1.802l0.009,0.828h-0.931v0.404h0.798v5.148h1.766 v-5.148h1.167v5.148h1.766v-5.148H19.9v-0.404h-0.816v-0.828h2.299v6.689h0.573v-6.689h0.882v-1.174H20.68l-0.859-3.264 l-1.767-0.318c0,0-0.337,1.036-1.267,1.092c-0.927,0.054-1.277-1.092-1.277-1.092l-1.49,0.354l-1.196,3.229h-0.356V3.077 l-0.672-0.206V2.684h14.772v4.814c-0.188-0.041-0.379-0.08-0.58-0.08c-1.604,0-2.907,1.304-2.907,2.911 c0,1.606,1.304,2.909,2.907,2.909c0.201,0,0.392-0.039,0.58-0.079v1.171l-0.527,0.631l-1.108-1.285l-2.567,0.446v5.219h0.916 l0.057,1.087h0.184v0.661v0.489v5.178h-0.199l-1.168,0.254v1.076h0.994l1.159-0.188l0.011,0.188h1.287v-1.197v-0.133v-5.178h0.731 v5.178v0.133v1.197h0.231v0.99h1.521V1.161H10.275z M5.874,17.033c-0.511,0-0.926-0.488-0.926-1.091s0.415-1.091,0.926-1.091 c0.512,0,0.927,0.488,0.927,1.091S6.386,17.033,5.874,17.033z M19.084,18.502l0.535,1.721h-0.535V18.502z M14.602,18.729 l0.018,1.494h-0.555L14.602,18.729z"/> <path d="M18.766,12.024l0.176-0.916l-1.096,0.313l-0.504-1.056l-0.936,0.975l-0.724-0.84l-0.342,1.109l-1.163-0.381l0.438,0.979 l-0.846,0.24l0.71,0.644c-0.029,0.101-0.061,0.202-0.08,0.309c-0.021,0.132-0.032,0.269-0.032,0.407 c0,1.361,1.104,2.464,2.466,2.464c1.36,0,2.465-1.104,2.465-2.464c0-0.273-0.056-0.529-0.136-0.775l0.5-0.691L18.766,12.024z"/> </g> </g> </g>
</svg>